<mxfile host="Electron" modified="2024-04-07T22:01:16.985Z" agent="Mozilla/5.0 (Windows NT 10.0; Win64; x64) AppleWebKit/537.36 (KHTML, like Gecko) draw.io/24.1.0 Chrome/120.0.6099.109 Electron/28.1.0 Safari/537.36" etag="UL_ahuCtnuLxxyTn2x69" version="24.1.0" type="device">
  <diagram name="Página-1" id="K3p1mCkerO4A2cDx_Imy">
    <mxGraphModel dx="1420" dy="830" grid="1" gridSize="10" guides="1" tooltips="1" connect="1" arrows="1" fold="1" page="1" pageScale="1" pageWidth="827" pageHeight="1169" background="#CCE5FF" math="0" shadow="0">
      <root>
        <mxCell id="0" />
        <mxCell id="1" parent="0" />
        <mxCell id="oEai4u7iInWBXaQaXTKD-1" value="&lt;font style=&quot;font-size: 16px;&quot; color=&quot;#000000&quot; face=&quot;Comic Sans MS&quot;&gt;&lt;b&gt;18 Hacer un programa para ingresar un número y luego informar todos los divisores pares de ese número. &lt;br&gt;&lt;br&gt;Ejemplo A. Si se ingresa 6 se listará: 2 y 6. Ejemplo B. Si se ingresa 8 se listará: 2, 4 y 8. Ejemplo C. Si se ingresa 11 no se listará nada.&lt;/b&gt;&lt;/font&gt;" style="text;whiteSpace=wrap;html=1;fontFamily=Architects Daughter;fontSource=https%3A%2F%2Ffonts.googleapis.com%2Fcss%3Ffamily%3DArchitects%2BDaughter;" vertex="1" parent="1">
          <mxGeometry x="110" y="10" width="740" height="120" as="geometry" />
        </mxCell>
        <mxCell id="oEai4u7iInWBXaQaXTKD-83" value="" style="group;aspect=fixed;" vertex="1" connectable="0" parent="1">
          <mxGeometry x="187" y="180" width="537.3" height="850" as="geometry" />
        </mxCell>
        <mxCell id="oEai4u7iInWBXaQaXTKD-11" value="" style="line;strokeWidth=2;direction=south;html=1;hachureGap=4;fontFamily=Architects Daughter;fontSource=https://fonts.googleapis.com/css?family=Architects+Daughter;strokeColor=#000000;container=0;" vertex="1" parent="oEai4u7iInWBXaQaXTKD-83">
          <mxGeometry x="263" y="750" width="10" height="50" as="geometry" />
        </mxCell>
        <mxCell id="oEai4u7iInWBXaQaXTKD-35" value="" style="group;aspect=fixed;" vertex="1" connectable="0" parent="oEai4u7iInWBXaQaXTKD-83">
          <mxGeometry x="193" width="150" height="190" as="geometry" />
        </mxCell>
        <mxCell id="oEai4u7iInWBXaQaXTKD-3" value="" style="line;strokeWidth=2;direction=south;html=1;hachureGap=4;fontFamily=Architects Daughter;fontSource=https://fonts.googleapis.com/css?family=Architects+Daughter;strokeColor=#000000;container=0;aspect=fixed;" vertex="1" parent="oEai4u7iInWBXaQaXTKD-35">
          <mxGeometry x="70" y="50" width="10" height="50" as="geometry" />
        </mxCell>
        <mxCell id="oEai4u7iInWBXaQaXTKD-4" value="" style="line;strokeWidth=2;direction=south;html=1;hachureGap=4;fontFamily=Architects Daughter;fontSource=https://fonts.googleapis.com/css?family=Architects+Daughter;strokeColor=#000000;container=0;aspect=fixed;" vertex="1" parent="oEai4u7iInWBXaQaXTKD-35">
          <mxGeometry x="70" y="140" width="10" height="50" as="geometry" />
        </mxCell>
        <mxCell id="oEai4u7iInWBXaQaXTKD-12" value="" style="strokeWidth=2;html=1;shape=mxgraph.flowchart.start_2;whiteSpace=wrap;rounded=0;labelBackgroundColor=none;strokeColor=#000000;align=center;verticalAlign=middle;fontFamily=Helvetica;fontSize=12;fontColor=default;fillColor=#d5e8d4;container=0;aspect=fixed;" vertex="1" parent="oEai4u7iInWBXaQaXTKD-35">
          <mxGeometry x="50" width="50" height="50" as="geometry" />
        </mxCell>
        <mxCell id="oEai4u7iInWBXaQaXTKD-13" value="&lt;font size=&quot;1&quot; color=&quot;#000000&quot; face=&quot;Comic Sans MS&quot;&gt;&lt;b style=&quot;font-size: 21px;&quot;&gt;I&lt;/b&gt;&lt;/font&gt;" style="text;strokeColor=none;align=center;fillColor=none;html=1;verticalAlign=middle;whiteSpace=wrap;rounded=0;fontFamily=Architects Daughter;fontSource=https%3A%2F%2Ffonts.googleapis.com%2Fcss%3Ffamily%3DArchitects%2BDaughter;container=0;aspect=fixed;" vertex="1" parent="oEai4u7iInWBXaQaXTKD-35">
          <mxGeometry x="55" y="5" width="40" height="40" as="geometry" />
        </mxCell>
        <mxCell id="oEai4u7iInWBXaQaXTKD-16" value="" style="shape=trapezoid;perimeter=trapezoidPerimeter;whiteSpace=wrap;html=1;fixedSize=1;rounded=0;labelBackgroundColor=none;strokeColor=#121211;strokeWidth=2;align=center;verticalAlign=middle;fontFamily=Helvetica;fontSize=12;fontColor=default;fillColor=#d5e8d4;direction=west;container=0;aspect=fixed;" vertex="1" parent="oEai4u7iInWBXaQaXTKD-35">
          <mxGeometry y="100" width="150" height="40" as="geometry">
            <mxRectangle x="-1020" y="-650" width="50" height="40" as="alternateBounds" />
          </mxGeometry>
        </mxCell>
        <mxCell id="oEai4u7iInWBXaQaXTKD-17" value="&lt;font face=&quot;Comic Sans MS&quot; color=&quot;#000000&quot;&gt;&lt;span style=&quot;font-size: 16px;&quot;&gt;&lt;b&gt;num&lt;/b&gt;&lt;/span&gt;&lt;/font&gt;" style="text;strokeColor=none;align=center;fillColor=none;html=1;verticalAlign=middle;whiteSpace=wrap;rounded=0;fontFamily=Architects Daughter;fontSource=https://fonts.googleapis.com/css?family=Architects+Daughter;container=0;aspect=fixed;" vertex="1" parent="oEai4u7iInWBXaQaXTKD-35">
          <mxGeometry x="45" y="105" width="60" height="30" as="geometry" />
        </mxCell>
        <mxCell id="oEai4u7iInWBXaQaXTKD-36" value="" style="group;aspect=fixed;" vertex="1" connectable="0" parent="oEai4u7iInWBXaQaXTKD-83">
          <mxGeometry x="243.64999999999998" y="800" width="50" height="50" as="geometry" />
        </mxCell>
        <mxCell id="oEai4u7iInWBXaQaXTKD-14" value="" style="strokeWidth=2;html=1;shape=mxgraph.flowchart.start_2;whiteSpace=wrap;rounded=0;labelBackgroundColor=none;strokeColor=#000000;align=center;verticalAlign=middle;fontFamily=Helvetica;fontSize=12;fontColor=default;fillColor=#d5e8d4;container=0;" vertex="1" parent="oEai4u7iInWBXaQaXTKD-36">
          <mxGeometry width="50" height="50" as="geometry" />
        </mxCell>
        <mxCell id="oEai4u7iInWBXaQaXTKD-15" value="&lt;font size=&quot;1&quot; color=&quot;#000000&quot; face=&quot;Comic Sans MS&quot;&gt;&lt;b style=&quot;font-size: 21px;&quot;&gt;F&lt;/b&gt;&lt;/font&gt;" style="text;strokeColor=none;align=center;fillColor=none;html=1;verticalAlign=middle;whiteSpace=wrap;rounded=0;fontFamily=Architects Daughter;fontSource=https://fonts.googleapis.com/css?family=Architects+Daughter;container=0;" vertex="1" parent="oEai4u7iInWBXaQaXTKD-36">
          <mxGeometry x="6" y="5" width="40" height="40" as="geometry" />
        </mxCell>
        <mxCell id="oEai4u7iInWBXaQaXTKD-70" value="" style="group;aspect=fixed;" vertex="1" connectable="0" parent="oEai4u7iInWBXaQaXTKD-83">
          <mxGeometry y="190" width="537.3" height="560" as="geometry" />
        </mxCell>
        <mxCell id="oEai4u7iInWBXaQaXTKD-2" value="" style="whiteSpace=wrap;html=1;rounded=0;labelBackgroundColor=none;strokeColor=#000000;strokeWidth=2;align=center;verticalAlign=middle;fontFamily=Helvetica;fontSize=12;fontColor=default;fillColor=#d5e8d4;container=0;" vertex="1" parent="oEai4u7iInWBXaQaXTKD-70">
          <mxGeometry width="537.3" height="560" as="geometry" />
        </mxCell>
        <mxCell id="oEai4u7iInWBXaQaXTKD-44" value="" style="line;strokeWidth=2;html=1;perimeter=backbonePerimeter;points=[];outlineConnect=0;hachureGap=4;fontFamily=Architects Daughter;fontSource=https://fonts.googleapis.com/css?family=Architects+Daughter;strokeColor=#000000;container=0;" vertex="1" parent="oEai4u7iInWBXaQaXTKD-70">
          <mxGeometry x="130" y="276" width="50" height="10" as="geometry" />
        </mxCell>
        <mxCell id="oEai4u7iInWBXaQaXTKD-52" value="" style="line;strokeWidth=2;direction=south;html=1;hachureGap=4;fontFamily=Architects Daughter;fontSource=https://fonts.googleapis.com/css?family=Architects+Daughter;strokeColor=#000000;container=0;" vertex="1" parent="oEai4u7iInWBXaQaXTKD-70">
          <mxGeometry x="126" y="282" width="10" height="58" as="geometry" />
        </mxCell>
        <mxCell id="oEai4u7iInWBXaQaXTKD-53" value="" style="line;strokeWidth=2;direction=south;html=1;hachureGap=4;fontFamily=Architects Daughter;fontSource=https://fonts.googleapis.com/css?family=Architects+Daughter;strokeColor=#000000;container=0;" vertex="1" parent="oEai4u7iInWBXaQaXTKD-70">
          <mxGeometry x="126" y="380" width="10" height="30" as="geometry" />
        </mxCell>
        <mxCell id="oEai4u7iInWBXaQaXTKD-62" value="" style="line;strokeWidth=2;html=1;perimeter=backbonePerimeter;points=[];outlineConnect=0;hachureGap=4;fontFamily=Architects Daughter;fontSource=https://fonts.googleapis.com/css?family=Architects+Daughter;strokeColor=#000000;container=0;" vertex="1" parent="oEai4u7iInWBXaQaXTKD-70">
          <mxGeometry x="128" y="404" width="220" height="10" as="geometry" />
        </mxCell>
        <mxCell id="oEai4u7iInWBXaQaXTKD-65" value="" style="line;strokeWidth=2;html=1;perimeter=backbonePerimeter;points=[];outlineConnect=0;hachureGap=4;fontFamily=Architects Daughter;fontSource=https://fonts.googleapis.com/css?family=Architects+Daughter;strokeColor=#000000;container=0;" vertex="1" parent="oEai4u7iInWBXaQaXTKD-70">
          <mxGeometry x="243.64999999999998" y="446" width="206.35" height="10" as="geometry" />
        </mxCell>
        <mxCell id="oEai4u7iInWBXaQaXTKD-5" value="" style="line;strokeWidth=2;html=1;perimeter=backbonePerimeter;points=[];outlineConnect=0;hachureGap=4;fontFamily=Architects Daughter;fontSource=https://fonts.googleapis.com/css?family=Architects+Daughter;strokeColor=#000000;container=0;" vertex="1" parent="oEai4u7iInWBXaQaXTKD-70">
          <mxGeometry x="242" y="140" width="34" height="10" as="geometry" />
        </mxCell>
        <mxCell id="oEai4u7iInWBXaQaXTKD-6" value="" style="line;strokeWidth=2;direction=south;html=1;hachureGap=4;fontFamily=Architects Daughter;fontSource=https://fonts.googleapis.com/css?family=Architects+Daughter;strokeColor=#000000;container=0;" vertex="1" parent="oEai4u7iInWBXaQaXTKD-70">
          <mxGeometry x="240" y="145" width="10" height="80" as="geometry" />
        </mxCell>
        <mxCell id="oEai4u7iInWBXaQaXTKD-7" value="" style="line;strokeWidth=2;html=1;perimeter=backbonePerimeter;points=[];outlineConnect=0;hachureGap=4;fontFamily=Architects Daughter;fontSource=https://fonts.googleapis.com/css?family=Architects+Daughter;strokeColor=#000000;container=0;" vertex="1" parent="oEai4u7iInWBXaQaXTKD-70">
          <mxGeometry x="406" y="140" width="46" height="10" as="geometry" />
        </mxCell>
        <mxCell id="oEai4u7iInWBXaQaXTKD-8" value="" style="line;strokeWidth=2;direction=south;html=1;hachureGap=4;fontFamily=Architects Daughter;fontSource=https://fonts.googleapis.com/css?family=Architects+Daughter;strokeColor=#000000;container=0;" vertex="1" parent="oEai4u7iInWBXaQaXTKD-70">
          <mxGeometry x="446" y="145" width="10" height="305" as="geometry" />
        </mxCell>
        <mxCell id="oEai4u7iInWBXaQaXTKD-26" value="" style="rhombus;whiteSpace=wrap;html=1;rounded=0;labelBackgroundColor=none;strokeColor=#0F140C;strokeWidth=2;align=center;verticalAlign=middle;fontFamily=Helvetica;fontSize=12;fontColor=default;fillColor=#d5e8d4;container=0;" vertex="1" parent="oEai4u7iInWBXaQaXTKD-70">
          <mxGeometry x="276" y="90" width="130" height="110" as="geometry" />
        </mxCell>
        <mxCell id="oEai4u7iInWBXaQaXTKD-27" value="&lt;font style=&quot;font-size: 15px;&quot;&gt;&lt;b&gt;&lt;font style=&quot;font-size: 15px;&quot; color=&quot;#000000&quot; face=&quot;Comic Sans MS&quot;&gt;num %&amp;nbsp;&lt;/font&gt;&lt;/b&gt;&lt;b style=&quot;background-color: initial;&quot;&gt;&lt;font style=&quot;font-size: 15px;&quot; color=&quot;#000000&quot; face=&quot;Comic Sans MS&quot;&gt;x&lt;/font&gt;&lt;/b&gt;&lt;/font&gt;&lt;div style=&quot;font-size: 15px;&quot;&gt;&lt;b style=&quot;background-color: initial;&quot;&gt;&lt;font style=&quot;font-size: 15px;&quot; color=&quot;#000000&quot; face=&quot;Comic Sans MS&quot;&gt;==&lt;/font&gt;&lt;/b&gt;&lt;/div&gt;&lt;div style=&quot;font-size: 15px;&quot;&gt;&lt;b style=&quot;background-color: initial;&quot;&gt;&lt;font style=&quot;font-size: 15px;&quot; color=&quot;#000000&quot; face=&quot;Comic Sans MS&quot;&gt;0&lt;/font&gt;&lt;/b&gt;&lt;/div&gt;" style="text;strokeColor=none;align=center;fillColor=none;html=1;verticalAlign=middle;whiteSpace=wrap;rounded=0;fontFamily=Architects Daughter;fontSource=https%3A%2F%2Ffonts.googleapis.com%2Fcss%3Ffamily%3DArchitects%2BDaughter;container=0;" vertex="1" parent="oEai4u7iInWBXaQaXTKD-70">
          <mxGeometry x="306" y="120" width="70" height="60" as="geometry" />
        </mxCell>
        <mxCell id="oEai4u7iInWBXaQaXTKD-30" value="&lt;b&gt;&lt;font color=&quot;#000000&quot; style=&quot;font-size: 13px;&quot; face=&quot;Comic Sans MS&quot;&gt;V&lt;/font&gt;&lt;/b&gt;" style="text;strokeColor=none;align=center;fillColor=none;html=1;verticalAlign=middle;whiteSpace=wrap;rounded=0;fontFamily=Architects Daughter;fontSource=https%3A%2F%2Ffonts.googleapis.com%2Fcss%3Ffamily%3DArchitects%2BDaughter;container=0;" vertex="1" parent="oEai4u7iInWBXaQaXTKD-70">
          <mxGeometry x="230" y="123" width="30" height="25" as="geometry" />
        </mxCell>
        <mxCell id="oEai4u7iInWBXaQaXTKD-31" value="&lt;b&gt;&lt;font color=&quot;#000000&quot; style=&quot;font-size: 13px;&quot; face=&quot;Comic Sans MS&quot;&gt;F&lt;/font&gt;&lt;/b&gt;" style="text;strokeColor=none;align=center;fillColor=none;html=1;verticalAlign=middle;whiteSpace=wrap;rounded=0;fontFamily=Architects Daughter;fontSource=https://fonts.googleapis.com/css?family=Architects+Daughter;container=0;" vertex="1" parent="oEai4u7iInWBXaQaXTKD-70">
          <mxGeometry x="431" y="124" width="30" height="25" as="geometry" />
        </mxCell>
        <mxCell id="oEai4u7iInWBXaQaXTKD-39" value="" style="rhombus;whiteSpace=wrap;html=1;rounded=0;labelBackgroundColor=none;strokeColor=#0F140C;strokeWidth=2;align=center;verticalAlign=middle;fontFamily=Helvetica;fontSize=12;fontColor=default;fillColor=#d5e8d4;container=0;" vertex="1" parent="oEai4u7iInWBXaQaXTKD-70">
          <mxGeometry x="180" y="225" width="130" height="110" as="geometry" />
        </mxCell>
        <mxCell id="oEai4u7iInWBXaQaXTKD-40" value="&lt;font face=&quot;Comic Sans MS&quot; color=&quot;#000000&quot;&gt;&lt;span style=&quot;font-size: 15px;&quot;&gt;&lt;b&gt;x % 2&lt;/b&gt;&lt;/span&gt;&lt;/font&gt;&lt;div&gt;&lt;font face=&quot;Comic Sans MS&quot; color=&quot;#000000&quot;&gt;&lt;span style=&quot;font-size: 15px;&quot;&gt;&lt;b&gt;==&lt;/b&gt;&lt;/span&gt;&lt;/font&gt;&lt;/div&gt;&lt;div&gt;&lt;font face=&quot;Comic Sans MS&quot; color=&quot;#000000&quot;&gt;&lt;span style=&quot;font-size: 15px;&quot;&gt;&lt;b&gt;0&lt;/b&gt;&lt;/span&gt;&lt;/font&gt;&lt;/div&gt;" style="text;strokeColor=none;align=center;fillColor=none;html=1;verticalAlign=middle;whiteSpace=wrap;rounded=0;fontFamily=Architects Daughter;fontSource=https%3A%2F%2Ffonts.googleapis.com%2Fcss%3Ffamily%3DArchitects%2BDaughter;container=0;" vertex="1" parent="oEai4u7iInWBXaQaXTKD-70">
          <mxGeometry x="210" y="255" width="70" height="60" as="geometry" />
        </mxCell>
        <mxCell id="oEai4u7iInWBXaQaXTKD-46" value="" style="line;strokeWidth=2;html=1;perimeter=backbonePerimeter;points=[];outlineConnect=0;hachureGap=4;fontFamily=Architects Daughter;fontSource=https://fonts.googleapis.com/css?family=Architects+Daughter;strokeColor=#000000;container=0;" vertex="1" parent="oEai4u7iInWBXaQaXTKD-70">
          <mxGeometry x="309" y="275" width="41" height="10" as="geometry" />
        </mxCell>
        <mxCell id="oEai4u7iInWBXaQaXTKD-59" value="" style="line;strokeWidth=2;direction=south;html=1;hachureGap=4;fontFamily=Architects Daughter;fontSource=https://fonts.googleapis.com/css?family=Architects+Daughter;strokeColor=#000000;container=0;" vertex="1" parent="oEai4u7iInWBXaQaXTKD-70">
          <mxGeometry x="342" y="278" width="10" height="132" as="geometry" />
        </mxCell>
        <mxCell id="oEai4u7iInWBXaQaXTKD-58" value="" style="line;strokeWidth=2;direction=south;html=1;hachureGap=4;fontFamily=Architects Daughter;fontSource=https://fonts.googleapis.com/css?family=Architects+Daughter;strokeColor=#000000;container=0;" vertex="1" parent="oEai4u7iInWBXaQaXTKD-70">
          <mxGeometry x="240" y="410" width="10" height="40" as="geometry" />
        </mxCell>
        <mxCell id="oEai4u7iInWBXaQaXTKD-56" value="" style="shape=trapezoid;perimeter=trapezoidPerimeter;whiteSpace=wrap;html=1;fixedSize=1;rounded=0;labelBackgroundColor=none;strokeColor=#0F140C;strokeWidth=2;align=center;verticalAlign=middle;fontFamily=Helvetica;fontSize=12;fontColor=default;fillColor=#d5e8d4;container=0;" vertex="1" parent="oEai4u7iInWBXaQaXTKD-70">
          <mxGeometry x="66" y="340" width="130" height="40" as="geometry" />
        </mxCell>
        <mxCell id="oEai4u7iInWBXaQaXTKD-57" value="&lt;font size=&quot;1&quot; face=&quot;Comic Sans MS&quot; color=&quot;#000000&quot;&gt;&lt;b style=&quot;font-size: 20px;&quot;&gt;x&lt;/b&gt;&lt;/font&gt;" style="text;strokeColor=none;align=center;fillColor=none;html=1;verticalAlign=middle;whiteSpace=wrap;rounded=0;fontFamily=Architects Daughter;fontSource=https://fonts.googleapis.com/css?family=Architects+Daughter;container=0;" vertex="1" parent="oEai4u7iInWBXaQaXTKD-70">
          <mxGeometry x="99" y="345" width="60" height="30" as="geometry" />
        </mxCell>
        <mxCell id="oEai4u7iInWBXaQaXTKD-71" value="" style="group;aspect=fixed;" vertex="1" connectable="0" parent="oEai4u7iInWBXaQaXTKD-70">
          <mxGeometry x="-87" y="32" width="170" height="170" as="geometry" />
        </mxCell>
        <mxCell id="oEai4u7iInWBXaQaXTKD-72" value="" style="ellipse;whiteSpace=wrap;html=1;aspect=fixed;rounded=0;labelBackgroundColor=none;strokeColor=#0F140C;strokeWidth=3;align=center;verticalAlign=middle;fontFamily=Helvetica;fontSize=12;fontColor=default;fillColor=#d5e8d4;container=0;" vertex="1" parent="oEai4u7iInWBXaQaXTKD-71">
          <mxGeometry width="170" height="170" as="geometry" />
        </mxCell>
        <mxCell id="oEai4u7iInWBXaQaXTKD-73" value="" style="endArrow=none;html=1;rounded=0;strokeColor=#0F140C;fontFamily=Helvetica;fontSize=12;fontColor=default;fillColor=#B2C9AB;strokeWidth=2;" edge="1" parent="oEai4u7iInWBXaQaXTKD-71">
          <mxGeometry width="50" height="50" relative="1" as="geometry">
            <mxPoint x="163.20000000000005" y="47.60000000000002" as="sourcePoint" />
            <mxPoint x="6.7999999999999545" y="47.60000000000002" as="targetPoint" />
          </mxGeometry>
        </mxCell>
        <mxCell id="oEai4u7iInWBXaQaXTKD-74" value="" style="endArrow=none;html=1;rounded=0;strokeColor=#0F140C;fontFamily=Helvetica;fontSize=12;fontColor=default;fillColor=#B2C9AB;exitX=0.264;exitY=0.952;exitDx=0;exitDy=0;exitPerimeter=0;strokeWidth=2;" edge="1" parent="oEai4u7iInWBXaQaXTKD-71" source="oEai4u7iInWBXaQaXTKD-72">
          <mxGeometry width="50" height="50" relative="1" as="geometry">
            <mxPoint x="40.799999999999955" y="102.00000000000011" as="sourcePoint" />
            <mxPoint x="47.60000000000002" y="47.60000000000002" as="targetPoint" />
          </mxGeometry>
        </mxCell>
        <mxCell id="oEai4u7iInWBXaQaXTKD-75" value="" style="endArrow=none;html=1;rounded=0;strokeColor=#0F140C;fontFamily=Helvetica;fontSize=12;fontColor=default;fillColor=#B2C9AB;exitX=0.728;exitY=0.948;exitDx=0;exitDy=0;exitPerimeter=0;strokeWidth=2;" edge="1" parent="oEai4u7iInWBXaQaXTKD-71" source="oEai4u7iInWBXaQaXTKD-72">
          <mxGeometry width="50" height="50" relative="1" as="geometry">
            <mxPoint x="102" y="115.60000000000014" as="sourcePoint" />
            <mxPoint x="123.75999999999999" y="47.60000000000002" as="targetPoint" />
          </mxGeometry>
        </mxCell>
        <mxCell id="oEai4u7iInWBXaQaXTKD-76" value="&lt;font size=&quot;1&quot; face=&quot;Comic Sans MS&quot; color=&quot;#000000&quot;&gt;&lt;b style=&quot;font-size: 20px;&quot;&gt;x&lt;/b&gt;&lt;/font&gt;" style="text;strokeColor=none;align=center;fillColor=none;html=1;verticalAlign=middle;whiteSpace=wrap;rounded=0;fontFamily=Architects Daughter;fontSource=https://fonts.googleapis.com/css?family=Architects+Daughter;container=0;" vertex="1" parent="oEai4u7iInWBXaQaXTKD-71">
          <mxGeometry x="55" y="10" width="60" height="30" as="geometry" />
        </mxCell>
        <mxCell id="oEai4u7iInWBXaQaXTKD-77" value="&lt;font size=&quot;1&quot; face=&quot;Comic Sans MS&quot; color=&quot;#000000&quot;&gt;&lt;b style=&quot;font-size: 14px;&quot;&gt;x = 1&lt;/b&gt;&lt;/font&gt;" style="text;strokeColor=none;align=center;fillColor=none;html=1;verticalAlign=middle;whiteSpace=wrap;rounded=0;fontFamily=Architects Daughter;fontSource=https://fonts.googleapis.com/css?family=Architects+Daughter;container=0;" vertex="1" parent="oEai4u7iInWBXaQaXTKD-71">
          <mxGeometry x="3" y="82" width="40" height="20" as="geometry" />
        </mxCell>
        <mxCell id="oEai4u7iInWBXaQaXTKD-78" value="&lt;font size=&quot;1&quot; face=&quot;Comic Sans MS&quot; color=&quot;#000000&quot;&gt;&lt;b style=&quot;font-size: 14px;&quot;&gt;x &amp;lt;= num&lt;/b&gt;&lt;/font&gt;" style="text;strokeColor=none;align=center;fillColor=none;html=1;verticalAlign=middle;whiteSpace=wrap;rounded=0;fontFamily=Architects Daughter;fontSource=https://fonts.googleapis.com/css?family=Architects+Daughter;container=0;" vertex="1" parent="oEai4u7iInWBXaQaXTKD-71">
          <mxGeometry x="50" y="82" width="70" height="20" as="geometry" />
        </mxCell>
        <mxCell id="oEai4u7iInWBXaQaXTKD-79" value="&lt;font size=&quot;1&quot; face=&quot;Comic Sans MS&quot; color=&quot;#000000&quot;&gt;&lt;b style=&quot;font-size: 16px;&quot;&gt;x++&lt;/b&gt;&lt;/font&gt;" style="text;strokeColor=none;align=center;fillColor=none;html=1;verticalAlign=middle;whiteSpace=wrap;rounded=0;fontFamily=Architects Daughter;fontSource=https://fonts.googleapis.com/css?family=Architects+Daughter;container=0;" vertex="1" parent="oEai4u7iInWBXaQaXTKD-71">
          <mxGeometry x="127" y="82" width="40" height="20" as="geometry" />
        </mxCell>
        <mxCell id="oEai4u7iInWBXaQaXTKD-81" value="&lt;b&gt;&lt;font color=&quot;#000000&quot; style=&quot;font-size: 13px;&quot; face=&quot;Comic Sans MS&quot;&gt;V&lt;/font&gt;&lt;/b&gt;" style="text;strokeColor=none;align=center;fillColor=none;html=1;verticalAlign=middle;whiteSpace=wrap;rounded=0;fontFamily=Architects Daughter;fontSource=https%3A%2F%2Ffonts.googleapis.com%2Fcss%3Ffamily%3DArchitects%2BDaughter;" vertex="1" parent="oEai4u7iInWBXaQaXTKD-70">
          <mxGeometry x="118" y="259" width="30" height="30" as="geometry" />
        </mxCell>
        <mxCell id="oEai4u7iInWBXaQaXTKD-82" value="&lt;b&gt;&lt;font color=&quot;#000000&quot; style=&quot;font-size: 13px;&quot; face=&quot;Comic Sans MS&quot;&gt;F&lt;/font&gt;&lt;/b&gt;" style="text;strokeColor=none;align=center;fillColor=none;html=1;verticalAlign=middle;whiteSpace=wrap;rounded=0;fontFamily=Architects Daughter;fontSource=https://fonts.googleapis.com/css?family=Architects+Daughter;" vertex="1" parent="oEai4u7iInWBXaQaXTKD-70">
          <mxGeometry x="330" y="258" width="30" height="30" as="geometry" />
        </mxCell>
      </root>
    </mxGraphModel>
  </diagram>
</mxfile>
